# Blender 3.4.1
# www.blender.org
mtllib 3.mtl
o COL_9.001
v 24.430283 -9.018041 146.333740
v 24.430290 -9.018040 146.333740
v 20.725208 -1.603229 121.437027
v -20.725121 -1.603257 121.437111
v 93.487419 -9.017961 86.831154
v 51.196918 -9.018023 136.949020
v -93.487404 -9.018070 86.831169
v -51.196915 -9.018075 136.949020
v -85.449905 -9.018074 102.959976
v -24.430172 -9.018027 146.333679
v -20.725113 -1.603257 121.437119
v -20.725121 -1.603258 121.437111
v 0.000000 -2.505292 124.457855
v 0.000011 -2.505293 124.457840
v 20.815022 -1.572459 121.666977
v 37.830517 -1.503076 114.976501
v 49.781605 -9.017952 137.811691
v 49.781559 -9.017924 137.811737
v 31.191238 -9.017989 146.101944
v 52.325333 -1.503022 103.670242
v 71.044083 -9.017982 121.512238
v 70.129662 -9.017977 122.391243
v 49.781551 -9.018020 137.811737
v 37.830536 -1.502880 114.976395
v 63.777420 -1.503011 88.813354
v 86.293198 -9.018020 101.631165
v 85.449875 -9.018012 102.959808
v 31.191273 -9.018064 146.101913
v 24.430290 -9.018041 146.333740
v 51.197075 -9.018128 136.949219
v 37.830494 -1.502979 114.976624
v 70.129715 -9.018109 122.391357
v 51.196983 -9.018010 136.948944
v 63.777534 -1.503019 88.813347
v 85.449913 -9.018021 102.959969
v 85.450111 -9.018048 102.959953
v 71.044052 -9.018049 121.512436
v 71.776001 -1.503104 71.535080
v 71.776146 -3.507132 71.534966
v 93.487518 -9.017862 86.831055
v 86.293381 -9.017935 101.631348
v 71.776039 -1.503001 71.535133
v 93.487579 -9.018071 86.831161
v -31.191063 -9.018014 146.101929
v -49.781460 -9.017964 137.811829
v -49.781738 -9.018049 137.811920
v -37.830540 -1.503118 114.976547
v -52.325333 -1.503075 103.670242
v -70.129715 -9.018030 122.391190
v -71.043945 -9.018024 121.512375
v -37.830528 -1.502921 114.976387
v -49.781548 -9.018070 137.811737
v -86.293259 -9.018084 101.631271
v -63.776493 -1.502725 88.812897
v -24.430168 -9.018028 146.333679
v -31.191132 -9.018057 146.101868
v -51.196980 -9.018060 136.948959
v -70.129982 -9.018172 122.391258
v -37.830494 -1.503021 114.976624
v -51.197071 -9.018181 136.949234
v -71.044052 -9.018112 121.512436
v -85.450005 -9.018124 102.959877
v -85.449905 -9.018099 102.959976
v -63.777534 -1.503081 88.813347
v -71.776138 -3.506958 71.534973
v -71.775993 -1.503150 71.535088
v -71.775864 -1.502973 71.535141
v -63.777229 -1.502978 88.813377
v -63.777504 -1.503231 88.813408
v -86.293274 -9.018138 101.631256
vn -0.0000 -0.9584 -0.2854
vn -0.0002 -0.9585 -0.2852
vn 0.0041 -0.9572 -0.2895
vn -0.0949 -0.9593 -0.2660
vn -0.1086 -0.9638 -0.2436
vn -0.1936 -0.9602 -0.2014
vn -0.1460 -0.9599 -0.2395
vn -0.2355 -0.9603 -0.1494
vn -0.0097 -0.9587 -0.2841
vn -0.1736 -0.9593 -0.2225
vn -0.1711 -0.9598 -0.2225
vn -0.2215 -0.9601 -0.1707
vn -0.2215 -0.9599 -0.1720
vn -0.5760 -0.0001 0.8175
vn -0.2510 -0.9603 -0.1220
vn -0.2508 -0.9610 -0.1161
vn 0.1086 -0.9638 -0.2436
vn 0.0949 -0.9593 -0.2660
vn 0.1936 -0.9602 -0.2014
vn 0.1460 -0.9599 -0.2395
vn 0.2355 -0.9603 -0.1494
vn 0.0097 -0.9587 -0.2841
vn 0.1711 -0.9598 -0.2225
vn 0.1736 -0.9593 -0.2225
vn 0.2215 -0.9599 -0.1720
vn 0.2215 -0.9601 -0.1707
vn 0.5760 -0.0001 0.8175
vn 0.2508 -0.9610 -0.1161
vn 0.2510 -0.9603 -0.1220
s 0
usemtl COL_9
f 1//1 10//1 11//1
f 1//2 12//2 13//2
f 2//3 14//3 15//3
f 3//4 16//4 17//4
f 3//5 18//5 19//5
f 20//6 21//6 22//6
f 6//7 23//7 24//7
f 25//8 26//8 27//8
f 3//9 28//9 29//9
f 20//10 30//10 31//10
f 20//11 32//11 33//11
f 20//12 34//12 35//12
f 20//13 36//13 37//13
f 5//14 38//14 39//14
f 25//15 40//15 41//15
f 25//16 42//16 43//16
f 4//17 44//17 45//17
f 4//18 46//18 47//18
f 48//19 49//19 50//19
f 8//20 51//20 52//20
f 9//21 53//21 54//21
f 4//22 55//22 56//22
f 48//23 57//23 58//23
f 48//24 59//24 60//24
f 48//25 61//25 62//25
f 48//26 63//26 64//26
f 7//27 65//27 66//27
f 7//28 67//28 68//28
f 7//29 69//29 70//29
