# Blender 3.4.1
# www.blender.org
mtllib 81.mtl
o COL_4
v 19.413383 0.000001 19.413383
v -19.413383 -0.000016 19.413383
v 70.826775 0.000004 70.871208
v -56.478485 -0.000046 56.511818
v -0.000009 0.000000 -3.212142
v 2.333737 0.000001 -3.212141
v 2.807476 0.000001 -2.807531
v 2.807578 0.000001 -2.807516
v 0.000000 0.000000 -2.807516
v 0.000000 0.000001 -3.537680
v 1.802536 0.000001 -3.537680
v 2.333762 0.000001 -3.212141
v 0.000000 0.000000 -3.537679
v 2.333744 0.000001 -3.212142
v 0.000000 0.000001 -3.776097
v 1.226925 0.000001 -3.776098
v 1.802522 0.000001 -3.537681
v 1.802530 0.000001 -3.537680
v -0.000009 0.000001 -3.921548
v 0.621114 0.000001 -3.921548
v 1.226879 0.000001 -3.776109
v -0.000009 0.000001 -3.921548
v 1.226974 0.000001 -3.776097
v -0.000009 0.000001 -3.970436
v 0.621104 0.000001 -3.921548
v 3.416806 0.000001 1.999766
v 3.212129 0.000002 -2.333787
v 3.537694 0.000002 -1.802520
v 3.537674 0.000002 -1.801927
v 3.537675 0.000001 1.802538
v 3.537675 0.000001 1.802536
v 3.537675 0.000002 -1.802550
v 3.776103 0.000001 -1.226926
v 3.776096 0.000001 -1.226851
v 3.776097 0.000001 1.226925
v 3.776098 0.000001 1.226928
v 3.776098 0.000001 -1.226889
v 3.921540 0.000001 -0.621073
v 3.921538 0.000001 -0.621046
v 3.921538 0.000001 0.621120
v 3.921539 0.000001 -0.621107
v 3.970428 0.000001 0.000008
v 3.921539 0.000001 0.621123
v 27.884691 0.000002 26.467703
v 27.632280 0.000002 27.632280
v 2.807514 0.000002 -2.807514
v 0.250468 0.000000 0.251024
v 0.000006 0.000000 0.000275
v 0.000013 0.000000 0.000268
v 0.000012 0.000001 -2.807514
v 0.250495 0.000000 0.251037
v 2.807514 0.000002 -2.807470
v 27.880384 0.000002 26.463343
v 0.250398 0.000000 0.250984
v 0.257202 0.000000 0.257585
v 27.885754 0.000002 26.468586
v 2.807513 0.000002 -2.807479
v 3.212132 0.000002 -2.333732
v -2.807595 -0.000000 -2.807516
v -2.807494 -0.000000 -2.807530
v -2.333756 -0.000000 -3.212142
v -2.333864 -0.000000 -3.212142
v 0.000001 0.000000 -3.537681
v -2.333743 0.000000 -3.212158
v -1.802543 0.000000 -3.537668
v -1.802626 0.000000 -3.537668
v -1.802513 0.000000 -3.537682
v -1.226948 0.000000 -3.776098
v -1.226991 0.000000 -3.776097
v -1.226866 0.000001 -3.776112
v -0.621115 0.000001 -3.921540
v -0.621119 0.000001 -3.921539
v -3.416809 -0.000002 1.999762
v -3.537678 -0.000002 1.802534
v -3.537678 -0.000001 -1.801930
v -3.537695 -0.000001 -1.802497
v -3.212133 -0.000001 -2.333786
v -3.537678 -0.000002 1.802532
v -3.776114 -0.000002 1.226939
v -3.776097 -0.000002 -1.226812
v -3.776104 -0.000002 -1.226900
v -3.537678 -0.000002 -1.802504
v -3.776115 -0.000002 1.226928
v -3.921548 -0.000002 0.621116
v -3.921557 -0.000002 -0.621058
v -3.921559 -0.000002 -0.621088
v -3.776098 -0.000002 -1.226946
v -3.921548 -0.000002 0.621116
v -3.970436 -0.000002 0.000009
v -3.921557 -0.000002 -0.621098
v -27.632280 -0.000019 27.632280
v -27.884691 -0.000019 26.467703
v -2.807529 -0.000001 -2.807516
v -0.000012 -0.000000 -2.807516
v -0.000013 -0.000001 0.000281
v -0.000012 -0.000001 0.000282
v -0.250481 -0.000001 0.251026
v -2.807552 -0.000001 -2.807511
v -0.250500 -0.000001 0.251034
v -27.885775 -0.000019 26.468603
v -0.257163 -0.000007 0.257546
v -0.250399 -0.000001 0.250979
v -27.880405 -0.000013 26.463360
v -3.212135 -0.000001 -2.333749
v -2.807560 -0.000001 -2.807445
v 15.587453 0.000007 -15.587466
v 61.624451 0.000009 37.567955
v 54.140259 0.000007 35.088539
v 54.145416 0.000007 35.095306
v 12.747427 0.000006 -12.747440
v 56.121250 0.000004 53.702145
v 63.036610 0.000005 57.407162
v 61.619221 0.000004 58.823841
v 54.139938 0.000007 35.088524
v 61.625008 0.000009 37.568222
v 63.036541 0.000005 57.406734
v 54.139957 0.000007 35.088772
v 63.036629 0.000005 57.407173
v 12.747436 0.000006 -12.747449
v 10.596360 0.000006 -14.584632
v 12.957121 0.000007 -17.833975
v 12.957113 0.000007 -17.833982
v 10.596364 0.000006 -14.584645
v 8.184415 0.000005 -16.062782
v 10.007770 0.000007 -19.641331
v 10.007767 0.000007 -19.641354
v 12.957108 0.000007 -17.833967
v 8.184401 0.000005 -16.062780
v 5.570872 0.000005 -17.145351
v 6.811927 0.000006 -20.965084
v 6.811930 0.000006 -20.965082
v 10.007759 0.000007 -19.641342
v 5.570879 0.000005 -17.145365
v 2.820205 0.000004 -17.805740
v 3.448478 0.000005 -21.772564
v 3.448468 0.000005 -21.772572
v 6.811931 0.000006 -20.965080
v 2.820188 0.000004 -17.805740
v 0.000010 0.000004 -18.027615
v 0.000018 0.000005 -22.043999
v 0.000000 0.000005 -22.044016
v 3.448460 0.000005 -21.772564
v 56.478508 0.000003 56.511841
v 27.636431 0.000002 27.636290
v 27.632380 0.000002 27.632586
v 27.884846 0.000002 26.467705
v 61.619194 0.000004 58.823814
v 72.244171 0.000005 69.454529
v 56.478600 0.000003 56.511833
v 61.619179 0.000004 58.823792
v 61.619251 0.000004 58.823864
v 56.478500 0.000003 56.511826
v -61.625023 -0.000024 37.568260
v -15.587628 -0.000001 -15.587628
v -12.747611 -0.000001 -12.747611
v -12.748326 0.000009 -12.746877
v -54.139862 -0.000057 35.088409
v -56.121250 -0.000045 53.702145
v -61.619221 -0.000048 58.823841
v -63.036709 -0.000048 57.407215
v -27.884846 -0.000033 26.467705
v -27.632380 -0.000033 27.632586
v -27.636368 -0.000033 27.636234
v -56.478504 -0.000046 56.511845
v -63.036671 -0.000048 57.407192
v -54.139938 -0.000041 35.088684
v -54.139862 -0.000021 35.088409
v -63.036758 -0.000028 57.407349
v -12.747442 -0.000005 -12.747442
v -15.587450 -0.000005 -15.587450
v -12.957126 -0.000004 -17.833950
v -12.957125 -0.000004 -17.833918
v -10.596359 -0.000004 -14.584633
v -10.596364 -0.000004 -14.584645
v -12.957146 -0.000004 -17.833950
v -10.007770 -0.000002 -19.641350
v -10.007773 -0.000002 -19.641312
v -8.184423 -0.000003 -16.062773
v -8.184409 -0.000002 -16.062771
v -10.007769 -0.000002 -19.641333
v -6.811939 -0.000000 -20.965073
v -6.811936 -0.000000 -20.965076
v -5.570889 -0.000001 -17.145370
v -5.570888 0.000000 -17.145355
v -6.811940 0.000001 -20.965073
v -3.448478 0.000002 -21.772564
v -2.820198 0.000001 -17.805731
v -2.820188 0.000002 -17.805740
v -3.448460 0.000003 -21.772564
v 0.000000 0.000004 -22.044016
v -0.000018 0.000004 -22.043999
v -0.000010 0.000003 -18.027615
v -56.478497 -0.000046 56.511829
v -61.619263 -0.000048 58.823875
v -70.827080 -0.000053 70.871605
v -61.619217 -0.000048 58.823845
v -70.826775 -0.000058 70.871208
v -72.244171 -0.000058 69.454529
v -61.619164 -0.000053 58.823784
vn -0.0000 -1.0000 -0.0000
s 0
usemtl COL_4
f 5//1 6//1 7//1
f 5//1 8//1 9//1
f 10//1 11//1 12//1
f 5//1 13//1 14//1
f 15//1 16//1 17//1
f 10//1 15//1 18//1
f 19//1 20//1 21//1
f 15//1 22//1 23//1
f 19//1 24//1 25//1
f 26//1 27//1 28//1
f 26//1 29//1 30//1
f 31//1 32//1 33//1
f 31//1 34//1 35//1
f 36//1 37//1 38//1
f 36//1 39//1 40//1
f 41//1 42//1 43//1
f 1//1 44//1 45//1
f 46//1 47//1 48//1
f 46//1 49//1 50//1
f 26//1 51//1 52//1
f 26//1 53//1 54//1
f 1//1 55//1 56//1
f 26//1 57//1 58//1
f 5//1 9//1 59//1
f 5//1 60//1 61//1
f 5//1 62//1 63//1
f 10//1 64//1 65//1
f 10//1 66//1 15//1
f 15//1 67//1 68//1
f 15//1 69//1 22//1
f 19//1 70//1 71//1
f 19//1 72//1 24//1
f 73//1 74//1 75//1
f 73//1 76//1 77//1
f 78//1 79//1 80//1
f 78//1 81//1 82//1
f 83//1 84//1 85//1
f 83//1 86//1 87//1
f 88//1 89//1 90//1
f 2//1 91//1 92//1
f 93//1 94//1 95//1
f 93//1 96//1 97//1
f 73//1 98//1 99//1
f 2//1 100//1 101//1
f 73//1 102//1 103//1
f 73//1 104//1 105//1
f 106//1 107//1 108//1
f 106//1 109//1 110//1
f 111//1 112//1 113//1
f 114//1 115//1 116//1
f 111//1 117//1 118//1
f 119//1 120//1 121//1
f 106//1 110//1 122//1
f 123//1 124//1 125//1
f 123//1 126//1 127//1
f 128//1 129//1 130//1
f 128//1 131//1 132//1
f 133//1 134//1 135//1
f 133//1 136//1 137//1
f 138//1 139//1 140//1
f 138//1 141//1 142//1
f 111//1 143//1 144//1
f 111//1 145//1 146//1
f 3//1 147//1 148//1
f 3//1 149//1 150//1
f 111//1 151//1 152//1
f 153//1 154//1 155//1
f 153//1 156//1 157//1
f 158//1 159//1 160//1
f 158//1 161//1 162//1
f 158//1 163//1 164//1
f 158//1 165//1 166//1
f 153//1 167//1 168//1
f 169//1 170//1 171//1
f 169//1 172//1 173//1
f 174//1 175//1 176//1
f 174//1 177//1 178//1
f 179//1 180//1 181//1
f 179//1 182//1 183//1
f 184//1 185//1 186//1
f 184//1 186//1 187//1
f 188//1 189//1 190//1
f 188//1 191//1 192//1
f 158//1 193//1 194//1
f 4//1 195//1 196//1
f 197//1 198//1 199//1
o COL_7
v 3.416806 0.000001 1.999766
v 3.776098 0.000001 1.226928
v 3.921539 0.000001 -0.621107
v 2.807514 0.000002 -2.807514
v -3.416809 -0.000002 1.999762
v -3.537678 -0.000002 1.802532
v -3.776115 -0.000002 1.226928
v -3.921548 -0.000002 0.621116
v -2.807529 -0.000001 -2.807516
v 56.121250 0.000004 53.702145
v 54.139938 0.000007 35.088524
v 12.747436 0.000006 -12.747449
v 10.596364 0.000006 -14.584645
v 8.184401 0.000005 -16.062780
v 5.570879 0.000005 -17.145365
v 2.820188 0.000004 -17.805740
v 0.000010 0.000004 -18.027615
v -56.121250 -0.000045 53.702145
v -12.747442 -0.000005 -12.747442
v -10.596364 -0.000004 -14.584645
v -8.184409 -0.000002 -16.062771
v -5.570888 0.000000 -17.145355
v -2.820188 0.000002 -17.805740
v -0.000010 0.000003 -18.027615
v 27.884979 0.000002 26.467834
v 54.139931 0.000007 35.088570
v 27.884775 0.000002 26.467722
v 3.538066 0.000001 1.802922
v 3.537676 0.000001 1.802537
v 27.885025 0.000002 26.467983
v 2.333755 0.000002 -3.212142
v 10.595583 0.000006 -14.583462
v 10.596346 0.000006 -14.584612
v 12.747415 0.000006 -12.747415
v 0.621116 0.000001 -3.921548
v -0.000006 0.000001 -3.970437
v -0.000009 0.000004 -18.027843
v 0.621109 0.000001 -3.921849
v 1.226911 0.000001 -3.776158
v 0.621072 0.000001 -3.921615
v 1.226898 0.000001 -3.776061
v 2.820186 0.000004 -17.805744
v 1.802522 0.000001 -3.537725
v 1.226924 0.000001 -3.776142
v 1.802402 0.000001 -3.537348
v 5.570856 0.000005 -17.145351
v 2.333725 0.000001 -3.212142
v 1.802554 0.000001 -3.537647
v 2.333781 0.000001 -3.212287
v 8.184391 0.000005 -16.062790
v -54.139923 -0.000041 35.088486
v -27.884853 -0.000033 26.467712
v -12.747421 -0.000002 -12.747408
v -10.596354 -0.000001 -14.584603
v -10.597347 -0.000001 -14.586107
v -2.333771 -0.000001 -3.212144
v -0.621109 -0.000000 -3.921844
v -0.621125 0.000001 -3.921539
v -0.000009 0.000004 -18.027634
v -0.000012 0.000001 -3.970437
v -2.820189 0.000001 -17.805740
v -1.226894 -0.000001 -3.776011
v -0.621064 -0.000000 -3.921559
v -1.226906 -0.000000 -3.776111
v -5.570865 -0.000001 -17.145342
v -1.802410 -0.000003 -3.537337
v -1.226904 -0.000001 -3.776042
v -1.802502 -0.000002 -3.537613
v -8.184407 -0.000003 -16.062790
v -2.333528 -0.000004 -3.211702
v -1.802593 -0.000003 -3.537697
v -2.333766 -0.000003 -3.212204
v -3.212156 -0.000001 -2.333760
v -12.747165 -0.000002 -12.747151
v 12.747141 0.000006 -12.747141
v 3.212140 0.000002 -2.333758
v 3.537627 0.000001 -1.802570
v 3.212128 0.000001 -2.333731
v 3.776121 0.000001 -1.226913
v 3.537662 0.000001 -1.802612
v 3.776095 0.000001 -1.226927
v 12.749004 0.000006 -12.749512
v 54.114273 0.000007 35.071518
v 3.537676 0.000001 1.802538
v 3.921541 0.000001 0.621111
v 54.171127 0.000007 35.109734
v 3.921397 0.000001 0.621204
v 3.970307 0.000001 -0.000218
v 54.146069 0.000007 35.092953
v 3.970427 0.000001 0.000004
v 12.747505 0.000006 -12.747450
v 54.139267 0.000007 35.088112
v -54.114708 -0.000022 35.071793
v -3.776119 -0.000002 1.226928
v -54.103107 -0.000022 35.064159
v -3.537679 -0.000002 1.802531
v -27.884745 -0.000013 26.467699
v -54.140942 -0.000022 35.088833
v -54.170197 -0.000022 35.109108
v -3.921548 -0.000002 0.621118
v -3.212188 -0.000005 -2.333782
v -3.537677 -0.000005 -1.802615
v -3.537667 -0.000005 -1.802603
v -3.776130 -0.000005 -1.226909
v -3.776150 -0.000005 -1.226934
v -3.921573 -0.000005 -0.621233
v -3.921480 -0.000005 -0.621104
v -54.139198 -0.000026 35.088097
v -54.115162 -0.000022 35.071323
v -3.970436 -0.000002 0.000005
v -54.139854 -0.000041 35.088432
v -3.921350 -0.000020 -0.621332
v -3.970221 -0.000020 -0.000305
vn -0.0000 -1.0000 -0.0000
s 0
usemtl COL_7
f 209//2 224//2 225//2
f 210//2 226//2 227//2
f 200//2 228//2 229//2
f 203//2 230//2 231//2
f 203//2 232//2 233//2
f 234//2 235//2 236//2
f 215//2 237//2 216//2
f 215//2 238//2 239//2
f 214//2 240//2 241//2
f 214//2 242//2 243//2
f 213//2 244//2 245//2
f 213//2 246//2 247//2
f 212//2 248//2 249//2
f 217//2 250//2 251//2
f 208//2 252//2 253//2
f 208//2 254//2 255//2
f 222//2 223//2 256//2
f 257//2 258//2 259//2
f 221//2 260//2 261//2
f 222//2 262//2 263//2
f 220//2 264//2 265//2
f 221//2 266//2 267//2
f 219//2 268//2 269//2
f 220//2 270//2 271//2
f 208//2 272//2 273//2
f 203//2 274//2 275//2
f 211//2 276//2 277//2
f 211//2 278//2 279//2
f 202//2 280//2 281//2
f 201//2 282//2 283//2
f 201//2 284//2 285//2
f 210//2 286//2 287//2
f 202//2 288//2 289//2
f 202//2 290//2 291//2
f 205//2 292//2 293//2
f 204//2 294//2 295//2
f 204//2 296//2 297//2
f 206//2 298//2 299//2
f 218//2 300//2 301//2
f 218//2 302//2 303//2
f 218//2 304//2 305//2
f 218//2 306//2 307//2
f 207//2 308//2 309//2
f 310//2 311//2 312//2
